<svg width="103" height="38" fill="none" xmlns="http://www.w3.org/2000/svg"><path fill-rule="evenodd" clip-rule="evenodd" d="M19 0c1.271 0 2.514.125 3.715.363v6.112c2.802.51 5.024 2.547 5.732 3.503V2.51C34.155 5.79 38 11.945 38 19c0 10.493-8.507 19-19 19S0 29.493 0 19C0 11.945 3.845 5.789 9.553 2.511v7.467l.009-.005-.009-.078c.708-.932 2.717-2.852 5.52-3.349v12.112c0 .287.115.56.32.76l2.857 2.78c.416.404 1.08.4 1.49-.011l2.664-2.664c.2-.199.311-.469.311-.75V6.48A13.059 13.059 0 0019 5.944c-1.369 0-2.688.21-3.927.601V.406A19.08 19.08 0 0119 0zM9.553 9.988A13.012 13.012 0 005.944 19c0 7.21 5.845 13.056 13.056 13.056 7.21 0 13.056-5.845 13.056-13.056a13.01 13.01 0 00-3.61-9.012v10.695c0 .282-.11.552-.31.75l-8.385 8.386a1.062 1.062 0 01-1.502 0l-8.385-8.385c-.2-.2-.31-.47-.31-.75V9.987z" fill="#3378FF"/><path d="M56.83 9V2h1.34l2.98 4.94h-.71L63.37 2h1.33l.02 7H63.2l-.01-4.67h.28l-2.34 3.93h-.73l-2.39-3.93h.34V9h-1.52zm10.55 0V2h1.34l2.98 4.94h-.71L73.92 2h1.33l.02 7h-1.52l-.01-4.67h.28l-2.34 3.93h-.73l-2.39-3.93h.34V9h-1.52zm13.952.12c-.554 0-1.067-.09-1.54-.27a3.698 3.698 0 01-1.22-.76 3.568 3.568 0 01-.8-1.15c-.187-.44-.28-.92-.28-1.44 0-.52.093-1 .28-1.44a3.49 3.49 0 01.81-1.15c.346-.327.753-.58 1.22-.76.466-.18.973-.27 1.52-.27.553 0 1.06.09 1.52.27.466.18.87.433 1.21.76a3.496 3.496 0 011.1 2.59c0 .52-.097 1.003-.29 1.45-.194.44-.464.823-.81 1.15-.34.32-.744.57-1.21.75-.46.18-.964.27-1.51.27zm-.01-1.38c.313 0 .6-.053.86-.16a2.04 2.04 0 001.16-1.17 2.36 2.36 0 00.17-.91 2.36 2.36 0 00-.17-.91 2.04 2.04 0 00-.46-.71 1.96 1.96 0 00-.69-.46 2.321 2.321 0 00-.87-.16 2.32 2.32 0 00-.87.16c-.26.107-.49.26-.69.46-.2.2-.357.437-.47.71-.107.273-.16.577-.16.91 0 .327.053.63.16.91.113.273.266.51.46.71.2.2.433.353.7.46.266.107.556.16.87.16zM56.83 23v-7h3.03c.627 0 1.167.103 1.62.31.453.2.803.49 1.05.87s.37.833.37 1.36c0 .52-.123.97-.37 1.35a2.37 2.37 0 01-1.05.86c-.453.2-.993.3-1.62.3h-2.13l.72-.71V23h-1.62zm4.45 0l-1.75-2.54h1.73L63.03 23h-1.75zm-2.83-2.48l-.72-.76h2.04c.5 0 .873-.107 1.12-.32.247-.22.37-.52.37-.9 0-.387-.123-.687-.37-.9-.247-.213-.62-.32-1.12-.32h-2.04l.72-.77v3.97zM65.183 23v-7h3.03c.627 0 1.167.103 1.62.31.454.2.804.49 1.05.87.247.38.37.833.37 1.36 0 .52-.123.97-.37 1.35-.246.38-.596.673-1.05.88-.453.2-.993.3-1.62.3h-2.13l.72-.73V23h-1.62zm1.62-2.48l-.72-.77h2.04c.5 0 .874-.107 1.12-.32.247-.213.37-.51.37-.89 0-.387-.123-.687-.37-.9-.246-.213-.62-.32-1.12-.32h-2.04l.72-.77v3.97zm10.085 2.6a4.363 4.363 0 01-1.53-.26 3.723 3.723 0 01-1.21-.76 3.57 3.57 0 01-.8-1.15 3.676 3.676 0 01-.28-1.45c0-.527.093-1.01.28-1.45a3.49 3.49 0 01.81-1.15 3.57 3.57 0 011.22-.75c.466-.18.98-.27 1.54-.27.62 0 1.176.103 1.67.31.5.207.92.507 1.26.9l-1.04.96a2.473 2.473 0 00-.83-.59c-.3-.133-.627-.2-.98-.2-.34 0-.65.053-.93.16-.28.107-.524.26-.73.46-.2.2-.357.437-.47.71-.107.273-.16.577-.16.91 0 .327.053.627.16.9.113.273.27.513.47.72.206.2.446.353.72.46.28.107.586.16.92.16.32 0 .63-.05.93-.15a2.76 2.76 0 00.89-.53l.92 1.17a4.21 4.21 0 01-1.33.66c-.5.153-1 .23-1.5.23zm1.35-1.1v-2.63h1.48v2.84l-1.48-.21z" fill="#E9EBF9" fill-opacity=".95"/><path d="M58.51 37l-2.29-7h1.68l1.99 6.2h-.84l2.08-6.2h1.5l2 6.2h-.81l2.04-6.2h1.55l-2.29 7h-1.74l-1.77-5.44h.46L60.25 37h-1.74zm12.264 0v-5.68h-2.24V30h6.1v1.32h-2.24V37h-1.62zm7.232-3.85h3.36v1.3h-3.36v-1.3zm.12 3.85h-1.62v-7h5.29v1.3h-3.67V37z" fill="#3378FF"/></svg>