<svg width="22" height="23" viewBox="0 0 22 23" fill="none" xmlns="http://www.w3.org/2000/svg">
<path d="M18.3333 5.52279C18.3333 5.52279 16.2314 3.87737 13.75 3.68945L13.5264 4.13724C15.7694 4.68679 16.7989 5.47237 17.875 6.43945C16.0201 5.49254 14.19 4.60612 11 4.60612C7.81002 4.60612 5.97989 5.49254 4.12502 6.43945C5.20119 5.47237 6.42585 4.59879 8.47369 4.13724L8.25002 3.68945C5.64669 3.93466 3.66669 5.52279 3.66669 5.52279C3.66669 5.52279 1.31956 8.92637 0.916687 15.6061C3.28169 18.3346 6.87502 18.3561 6.87502 18.3561L7.62669 17.3551C6.35069 16.9115 4.91152 16.1199 3.66669 14.6895C5.15077 15.8124 7.39064 16.9811 11 16.9811C14.6094 16.9811 16.8493 15.8124 18.3333 14.6895C17.089 16.1199 15.6498 16.9115 14.3734 17.3551L15.125 18.3561C15.125 18.3561 18.7183 18.3346 21.0833 15.6061C20.6805 8.92637 18.3333 5.52279 18.3333 5.52279ZM8.02085 13.7728C7.13444 13.7728 6.41669 12.9524 6.41669 11.9395C6.41669 10.9265 7.13444 10.1061 8.02085 10.1061C8.90727 10.1061 9.62502 10.9265 9.62502 11.9395C9.62502 12.9524 8.90727 13.7728 8.02085 13.7728ZM13.9792 13.7728C13.0928 13.7728 12.375 12.9524 12.375 11.9395C12.375 10.9265 13.0928 10.1061 13.9792 10.1061C14.8656 10.1061 15.5834 10.9265 15.5834 11.9395C15.5834 12.9524 14.8656 13.7728 13.9792 13.7728Z" fill="#737AAE"/>
</svg>
