<svg width="22" height="23" viewBox="0 0 22 23" fill="none" xmlns="http://www.w3.org/2000/svg">
<g clip-path="url(#clip0_93_5998)">
<path d="M21.8834 16.0819C21.8567 16.0245 21.8319 15.9769 21.8088 15.9387C21.4271 15.2513 20.6977 14.4075 19.621 13.4071L19.5983 13.3842L19.5869 13.373L19.5754 13.3614H19.5638C19.0751 12.8956 18.7657 12.5824 18.6361 12.422C18.399 12.1166 18.3459 11.8074 18.4755 11.4941C18.567 11.2574 18.9109 10.7575 19.5064 9.99371C19.8196 9.58894 20.0677 9.26453 20.2509 9.02012C21.572 7.26368 22.1448 6.14128 21.9691 5.6525L21.9009 5.53828C21.855 5.46952 21.7367 5.40661 21.546 5.34924C21.3548 5.29199 21.1105 5.28252 20.8127 5.32067L17.5138 5.34346C17.4604 5.32453 17.3841 5.32629 17.2847 5.34924C17.1854 5.37219 17.1357 5.3837 17.1357 5.3837L17.0783 5.41239L17.0327 5.44685C16.9945 5.46964 16.9525 5.50972 16.9067 5.56701C16.8611 5.6241 16.8229 5.6911 16.7924 5.76745C16.4333 6.69145 16.0249 7.55053 15.5666 8.34466C15.2841 8.8182 15.0246 9.22858 14.7876 9.57606C14.5509 9.92342 14.3524 10.1793 14.1921 10.3434C14.0317 10.5076 13.8868 10.6392 13.7568 10.7385C13.6269 10.8379 13.5277 10.88 13.4591 10.8646C13.3903 10.8492 13.3255 10.834 13.2642 10.8187C13.1573 10.75 13.0714 10.6564 13.0066 10.5381C12.9415 10.4197 12.8977 10.2708 12.8748 10.0913C12.852 9.91174 12.8385 9.75728 12.8347 9.62741C12.8311 9.49771 12.8328 9.31424 12.8405 9.07753C12.8484 8.8407 12.852 8.68047 12.852 8.59645C12.852 8.30623 12.8577 7.99125 12.869 7.65143C12.8806 7.31162 12.8899 7.04237 12.8977 6.84402C12.9055 6.64547 12.9091 6.4354 12.9091 6.21394C12.9091 5.99248 12.8957 5.8188 12.869 5.69274C12.8427 5.56685 12.8023 5.44464 12.7491 5.32617C12.6955 5.20782 12.6171 5.11626 12.5142 5.05127C12.4112 4.98636 12.283 4.93484 12.1305 4.89657C11.7258 4.80497 11.2103 4.75543 10.584 4.74772C9.16376 4.73248 8.25115 4.82419 7.84643 5.02274C7.68607 5.10663 7.54095 5.22126 7.41121 5.36625C7.27372 5.53431 7.25454 5.62603 7.3538 5.64111C7.81204 5.70976 8.13645 5.87397 8.32738 6.13358L8.39619 6.27115C8.44971 6.37041 8.50315 6.54613 8.55663 6.79809C8.61003 7.05004 8.64449 7.32875 8.65965 7.63406C8.69777 8.19161 8.69777 8.66887 8.65965 9.0659C8.62142 9.46308 8.58531 9.77228 8.55085 9.99375C8.51639 10.2152 8.46487 10.3947 8.39619 10.5321C8.32738 10.6695 8.2816 10.7535 8.25866 10.784C8.23575 10.8145 8.21665 10.8337 8.20149 10.8413C8.10223 10.8793 7.999 10.8987 7.89216 10.8987C7.78516 10.8987 7.65542 10.8452 7.50272 10.7382C7.35006 10.6312 7.19163 10.4843 7.02742 10.2972C6.86321 10.1101 6.67802 9.84851 6.47176 9.51255C6.26567 9.17659 6.05183 8.77952 5.83037 8.32135L5.64714 7.98908C5.5326 7.77532 5.37613 7.46407 5.17758 7.05561C4.9789 6.64699 4.8033 6.25173 4.65064 5.86991C4.58962 5.70955 4.49795 5.58747 4.37578 5.50346L4.31845 5.469C4.28034 5.43851 4.21916 5.40613 4.13523 5.37163C4.05117 5.33716 3.96347 5.31245 3.87176 5.29724L0.733229 5.32003C0.412512 5.32003 0.194902 5.39269 0.0803198 5.5378L0.0344629 5.60645C0.0115545 5.64468 0 5.70574 0 5.78979C0 5.87381 0.0229084 5.97691 0.0687653 6.099C0.526933 7.17581 1.02518 8.21431 1.56351 9.21466C2.10184 10.215 2.56963 11.0208 2.96662 11.6314C3.36368 12.2423 3.76841 12.819 4.1808 13.361C4.59319 13.9032 4.86617 14.2507 4.99973 14.4034C5.13345 14.5563 5.23848 14.6706 5.31483 14.747L5.60124 15.0218C5.78451 15.2051 6.05363 15.4247 6.40873 15.6804C6.76391 15.9364 7.15713 16.1883 7.58858 16.4367C8.0201 16.6847 8.52212 16.887 9.09491 17.0436C9.66762 17.2002 10.225 17.2631 10.7673 17.2328H12.0846C12.3517 17.2097 12.5541 17.1257 12.6917 16.9807L12.7373 16.9233C12.7679 16.8777 12.7966 16.8069 12.8231 16.7116C12.8499 16.6162 12.8632 16.511 12.8632 16.3966C12.8554 16.0683 12.8804 15.7724 12.9375 15.509C12.9946 15.2457 13.0597 15.0471 13.1324 14.9134C13.2052 14.7798 13.2873 14.6671 13.3786 14.5757C13.4702 14.4841 13.5354 14.4286 13.5737 14.4095C13.6117 14.3903 13.6421 14.3772 13.665 14.3694C13.8483 14.3083 14.0639 14.3675 14.3124 14.5471C14.5606 14.7266 14.7934 14.9481 15.0112 15.2115C15.2288 15.4751 15.4903 15.7708 15.7957 16.0991C16.1013 16.4275 16.3685 16.6716 16.5975 16.8322L16.8265 16.9697C16.9795 17.0614 17.178 17.1454 17.4224 17.2218C17.6664 17.2981 17.8801 17.3172 18.0637 17.279L20.9959 17.2333C21.2859 17.2333 21.5116 17.1853 21.6717 17.09C21.8321 16.9945 21.9274 16.8894 21.9581 16.775C21.9888 16.6605 21.9904 16.5306 21.9639 16.3853C21.9368 16.2405 21.91 16.1392 21.8834 16.0819Z" fill="#737AAE"/>
</g>
<defs>
<clipPath id="clip0_93_5998">
<rect width="22" height="22" fill="white" transform="translate(0 0.0224609)"/>
</clipPath>
</defs>
</svg>
