<svg width="22" height="23" viewBox="0 0 22 23" fill="none" xmlns="http://www.w3.org/2000/svg">
<path d="M21.065 4.91746C20.4683 3.85596 19.8206 3.66071 18.502 3.58646C17.1847 3.49709 13.8724 3.45996 11.0027 3.45996C8.12762 3.45996 4.81387 3.49709 3.498 3.58509C2.18212 3.66071 1.53312 3.85459 0.930875 4.91746C0.31625 5.97759 0 7.80359 0 11.0183C0 11.0211 0 11.0225 0 11.0225C0 11.0252 0 11.0266 0 11.0266V11.0293C0 14.2303 0.31625 16.0701 0.930875 17.1192C1.53312 18.1807 2.18075 18.3732 3.49662 18.4626C4.81388 18.5396 8.12762 18.585 11.0027 18.585C13.8724 18.585 17.1847 18.5396 18.5034 18.464C19.822 18.3746 20.4696 18.1821 21.0664 17.1206C21.6865 16.0715 22 14.2317 22 11.0307C22 11.0307 22 11.0266 22 11.0238C22 11.0238 22 11.0211 22 11.0197C22 7.80359 21.6865 5.97759 21.065 4.91746ZM8.25 15.1475V6.89746L15.125 11.0225L8.25 15.1475Z" fill="#737AAE"/>
</svg>
