<svg width="103" height="38" viewBox="0 0 103 38" fill="none" xmlns="http://www.w3.org/2000/svg">
<path fill-rule="evenodd" clip-rule="evenodd" d="M19 0C20.2714 0 21.5136 0.124877 22.7151 0.363034V6.47486C25.5173 6.98436 27.7393 9.02235 28.4469 9.97765V2.51127C34.1553 5.78884 38 11.9454 38 19C38 29.4934 29.4934 38 19 38C8.50659 38 0 29.4934 0 19C0 11.9454 3.8447 5.78884 9.55307 2.51127V9.89481V9.97765L9.56193 9.97255L9.55307 9.89481C10.2607 8.9628 12.2704 7.04325 15.0726 6.54618V18.6579C15.0726 18.9445 15.1885 19.2189 15.3939 19.4187L18.2496 22.1972C18.6657 22.6021 19.3298 22.5975 19.7403 22.187L22.4042 19.5232C22.6033 19.3241 22.7151 19.0541 22.7151 18.7726V6.48029C21.5376 6.13142 20.2907 5.94413 19 5.94413C17.6315 5.94413 16.3122 6.15469 15.0726 6.54517V0.406381C16.3399 0.140051 17.6536 0 19 0ZM9.55307 9.98824C7.31711 12.3315 5.94413 15.5054 5.94413 19C5.94413 26.2106 11.7894 32.0559 19 32.0559C26.2106 32.0559 32.0559 26.2106 32.0559 19C32.0559 15.5054 30.6829 12.3315 28.4469 9.98824V20.6832C28.4469 20.9648 28.3351 21.2347 28.136 21.4338L19.7506 29.8193C19.336 30.2338 18.664 30.2338 18.2494 29.8193L9.86396 21.4338C9.6649 21.2347 9.55307 20.9648 9.55307 20.6832V9.98824Z" fill="#3378FF"/>
<path d="M56.83 9V2H58.17L61.15 6.94H60.44L63.37 2H64.7L64.72 9H63.2L63.19 4.33H63.47L61.13 8.26H60.4L58.01 4.33H58.35V9H56.83ZM67.3808 9V2H68.7208L71.7008 6.94H70.9908L73.9208 2H75.2508L75.2708 9H73.7508L73.7408 4.33H74.0208L71.6808 8.26H70.9508L68.5608 4.33H68.9008V9H67.3808ZM81.3316 9.12C80.7782 9.12 80.2649 9.03 79.7916 8.85C79.3249 8.67 78.9182 8.41667 78.5716 8.09C78.2316 7.76333 77.9649 7.38 77.7716 6.94C77.5849 6.5 77.4916 6.02 77.4916 5.5C77.4916 4.98 77.5849 4.5 77.7716 4.06C77.9649 3.62 78.2349 3.23667 78.5816 2.91C78.9282 2.58333 79.3349 2.33 79.8016 2.15C80.2682 1.97 80.7749 1.88 81.3216 1.88C81.8749 1.88 82.3816 1.97 82.8416 2.15C83.3082 2.33 83.7116 2.58333 84.0516 2.91C84.3982 3.23667 84.6682 3.62 84.8616 4.06C85.0549 4.49333 85.1516 4.97333 85.1516 5.5C85.1516 6.02 85.0549 6.50333 84.8616 6.95C84.6682 7.39 84.3982 7.77333 84.0516 8.1C83.7116 8.42 83.3082 8.67 82.8416 8.85C82.3816 9.03 81.8782 9.12 81.3316 9.12ZM81.3216 7.74C81.6349 7.74 81.9216 7.68667 82.1816 7.58C82.4482 7.47333 82.6816 7.32 82.8816 7.12C83.0816 6.92 83.2349 6.68333 83.3416 6.41C83.4549 6.13667 83.5116 5.83333 83.5116 5.5C83.5116 5.16667 83.4549 4.86333 83.3416 4.59C83.2349 4.31667 83.0816 4.08 82.8816 3.88C82.6882 3.68 82.4582 3.52667 82.1916 3.42C81.9249 3.31333 81.6349 3.26 81.3216 3.26C81.0082 3.26 80.7182 3.31333 80.4516 3.42C80.1916 3.52667 79.9616 3.68 79.7616 3.88C79.5616 4.08 79.4049 4.31667 79.2916 4.59C79.1849 4.86333 79.1316 5.16667 79.1316 5.5C79.1316 5.82667 79.1849 6.13 79.2916 6.41C79.4049 6.68333 79.5582 6.92 79.7516 7.12C79.9516 7.32 80.1849 7.47333 80.4516 7.58C80.7182 7.68667 81.0082 7.74 81.3216 7.74Z" fill="#E9EBF9" fill-opacity="0.95"/>
<path d="M56.83 23V16H59.86C60.4867 16 61.0267 16.1033 61.48 16.31C61.9333 16.51 62.2833 16.8 62.53 17.18C62.7767 17.56 62.9 18.0133 62.9 18.54C62.9 19.06 62.7767 19.51 62.53 19.89C62.2833 20.2633 61.9333 20.55 61.48 20.75C61.0267 20.95 60.4867 21.05 59.86 21.05H57.73L58.45 20.34V23H56.83ZM61.28 23L59.53 20.46H61.26L63.03 23H61.28ZM58.45 20.52L57.73 19.76H59.77C60.27 19.76 60.6433 19.6533 60.89 19.44C61.1367 19.22 61.26 18.92 61.26 18.54C61.26 18.1533 61.1367 17.8533 60.89 17.64C60.6433 17.4267 60.27 17.32 59.77 17.32H57.73L58.45 16.55V20.52ZM65.1835 23V16H68.2135C68.8402 16 69.3802 16.1033 69.8335 16.31C70.2868 16.51 70.6368 16.8 70.8835 17.18C71.1302 17.56 71.2535 18.0133 71.2535 18.54C71.2535 19.06 71.1302 19.51 70.8835 19.89C70.6368 20.27 70.2868 20.5633 69.8335 20.77C69.3802 20.97 68.8402 21.07 68.2135 21.07H66.0835L66.8035 20.34V23H65.1835ZM66.8035 20.52L66.0835 19.75H68.1235C68.6235 19.75 68.9968 19.6433 69.2435 19.43C69.4902 19.2167 69.6135 18.92 69.6135 18.54C69.6135 18.1533 69.4902 17.8533 69.2435 17.64C68.9968 17.4267 68.6235 17.32 68.1235 17.32H66.0835L66.8035 16.55V20.52ZM76.8877 23.12C76.3344 23.12 75.8244 23.0333 75.3577 22.86C74.8977 22.68 74.4944 22.4267 74.1477 22.1C73.8077 21.7733 73.5411 21.39 73.3477 20.95C73.1611 20.51 73.0677 20.0267 73.0677 19.5C73.0677 18.9733 73.1611 18.49 73.3477 18.05C73.5411 17.61 73.8111 17.2267 74.1577 16.9C74.5044 16.5733 74.9111 16.3233 75.3777 16.15C75.8444 15.97 76.3577 15.88 76.9177 15.88C77.5377 15.88 78.0944 15.9833 78.5877 16.19C79.0877 16.3967 79.5077 16.6967 79.8477 17.09L78.8077 18.05C78.5544 17.7833 78.2777 17.5867 77.9777 17.46C77.6777 17.3267 77.3511 17.26 76.9977 17.26C76.6577 17.26 76.3477 17.3133 76.0677 17.42C75.7877 17.5267 75.5444 17.68 75.3377 17.88C75.1377 18.08 74.9811 18.3167 74.8677 18.59C74.7611 18.8633 74.7077 19.1667 74.7077 19.5C74.7077 19.8267 74.7611 20.1267 74.8677 20.4C74.9811 20.6733 75.1377 20.9133 75.3377 21.12C75.5444 21.32 75.7844 21.4733 76.0577 21.58C76.3377 21.6867 76.6444 21.74 76.9777 21.74C77.2977 21.74 77.6077 21.69 77.9077 21.59C78.2144 21.4833 78.5111 21.3067 78.7977 21.06L79.7177 22.23C79.3377 22.5167 78.8944 22.7367 78.3877 22.89C77.8877 23.0433 77.3877 23.12 76.8877 23.12ZM78.2377 22.02V19.39H79.7177V22.23L78.2377 22.02Z" fill="#E9EBF9" fill-opacity="0.95"/>
<path d="M58.51 37L56.22 30H57.9L59.89 36.2H59.05L61.13 30H62.63L64.63 36.2H63.82L65.86 30H67.41L65.12 37H63.38L61.61 31.56H62.07L60.25 37H58.51ZM70.7741 37V31.32H68.5341V30H74.6341V31.32H72.3941V37H70.7741ZM78.0058 33.15H81.3658V34.45H78.0058V33.15ZM78.1258 37H76.5058V30H81.7958V31.3H78.1258V37Z" fill="#3378FF"/>
</svg>
