<svg width="60" height="60" fill="none" xmlns="http://www.w3.org/2000/svg"><path d="M54.06 27.432L54.04 10c0-.84-.528-1.592-1.316-1.88l-22-8a2.01 2.01 0 00-1.368 0l-22 8A2.005 2.005 0 006.04 10l-.02 17.432c-.136 14.276-.232 24.588 23.388 32.464.208.068.416.104.632.104.216 0 .424-.036.632-.104 23.616-7.872 23.524-18.188 23.388-32.464zM30.04 55.888C9.816 48.992 9.888 41.308 10.02 27.472l.02-16.072 20-7.272 20 7.272.02 16.072c.132 13.836.204 21.52-20.02 28.416z" fill="#E9EBF9" fill-opacity=".95"/><path d="M18.3 35.473l.054.177h3.415l.054-.177 3.3-10.8.1-.323H22.6l-.055.176-2.504 8.101-2.463-8.1-.053-.177H14.9l.1.323 3.3 10.8zm12.992.002l.055.175h2.623l-.099-.323-3.3-10.8-.054-.177h-3.415l-.054.177-3.3 10.8-.099.323h2.624l.053-.177.457-1.503h4.04l.47 1.505zm10.88-4.05l-.237-.069-.072.236a2.954 2.954 0 01-.441.884c-.485.645-1.302.993-2.15.979h0-.009c-.865.014-1.68-.335-2.149-.977h0l-.004-.006c-.504-.654-.667-1.546-.683-2.472.016-.928.18-1.832.682-2.47h0l.005-.008c.469-.642 1.285-.992 2.153-.992.852 0 1.671.35 2.155.995h0l.005.006c.212.265.35.59.467.955l.067.207.214-.037 2.1-.36.279-.047-.082-.271a5.975 5.975 0 00-1.034-2.004h0l-.002-.003c-1.016-1.237-2.547-1.846-4.169-1.846-1.617 0-3.166.592-4.169 1.847-.928 1.12-1.33 2.499-1.33 4.028 0 1.469.386 2.864 1.33 4.013.955 1.192 2.516 1.862 4.17 1.862 1.56 0 3.122-.594 4.167-1.86v-.002a5.547 5.547 0 00.928-1.68l.088-.25-.254-.073-2.025-.585zm-12.09.125h-2.564l1.27-4.178 1.294 4.178z" fill="#3378FF" stroke="#3378FF" stroke-width=".5"/></svg>