<svg width="60" height="59" fill="none" xmlns="http://www.w3.org/2000/svg"><g clip-path="url(#clip0_93_5880)"><path d="M39.698 59a3.14 3.14 0 01-2.918-2.01L26.519 30.055c-.126-.278-.209-.684-.209-1.119a3.13 3.13 0 013.124-3.127c.445 0 .858.087 1.232.256l26.82 10.214A3.139 3.139 0 0159.5 39.2c0 1.358-.87 2.552-2.161 2.973L46.29 45.792l-3.62 11.055A3.123 3.123 0 0139.697 59zM30.41 29.913l9.251 24.276 3.417-10.43a1.843 1.843 0 011.178-1.178l10.43-3.417-24.276-9.25zm25.771 9.819h.025-.025zM29.245 29.468c.008.005.02.01.032.012l-.032-.012zm.686-.816l.037.093c-.012-.029-.022-.06-.037-.093z" fill="#3378FF"/><path d="M27.542 54.083C12.632 54.083.5 41.952.5 27.042S12.632 0 27.542 0c14.91 0 27.041 12.132 27.041 27.042 0 .52-.024 1.069-.051 1.588a1.83 1.83 0 01-1.933 1.75 1.844 1.844 0 01-1.75-1.932c.022-.457.047-.944.047-1.406 0-12.877-10.478-23.355-23.354-23.355-12.877 0-23.355 10.478-23.355 23.355 0 12.876 10.478 23.354 23.355 23.354.462 0 .946-.022 1.406-.047.944-.027 1.883.728 1.935 1.745a1.845 1.845 0 01-1.748 1.938c-.521.027-1.07.051-1.593.051z" fill="#E9EBF9" fill-opacity=".95"/><path d="M24.223 41.398c-.155 0-.314-.02-.472-.062-6.468-1.716-10.984-7.593-10.984-14.295 0-8.147 6.628-14.774 14.775-14.774 6.728 0 12.609 4.518 14.295 10.988a1.844 1.844 0 01-1.318 2.25 1.848 1.848 0 01-2.249-1.318c-1.264-4.848-5.676-8.233-10.728-8.233-6.112 0-11.087 4.973-11.087 11.087 0 5.03 3.39 9.443 8.243 10.73a1.841 1.841 0 011.307 2.255 1.846 1.846 0 01-1.782 1.372z" fill="#E9EBF9" fill-opacity=".95"/></g><defs><clipPath id="clip0_93_5880"><path fill="#fff" transform="translate(.5)" d="M0 0h59v59H0z"/></clipPath></defs></svg>