<svg width="60" height="60" fill="none" xmlns="http://www.w3.org/2000/svg"><g clip-path="url(#clip0_93_5870)"><path d="M32.175 60h-4.35a4.368 4.368 0 01-4.357-3.79l-.643-4.887a21.757 21.757 0 01-2.843-1.173l-3.89 2.988c-1.727 1.34-4.21 1.174-5.77-.388L7.25 49.675c-1.56-1.558-1.725-4.04-.383-5.773l2.985-3.884a21.613 21.613 0 01-1.172-2.843l-4.872-.64C1.593 36.222 0 34.39 0 32.175v-4.35a4.368 4.368 0 013.79-4.357l4.887-.643a21.77 21.77 0 011.173-2.843l-2.988-3.89c-1.337-1.727-1.172-4.21.388-5.77l3.075-3.072c1.558-1.56 4.04-1.728 5.775-.383l3.882 2.983a21.64 21.64 0 012.843-1.173l.64-4.872C23.778 1.593 25.61 0 27.825 0h4.35a4.368 4.368 0 014.357 3.79l.643 4.89c.98.325 1.928.717 2.843 1.172l3.89-2.987c1.727-1.338 4.212-1.175 5.77.387l3.072 3.073c1.56 1.558 1.725 4.04.383 5.773l-2.983 3.884c.458.915.848 1.866 1.173 2.843l4.872.64c2.212.313 3.805 2.145 3.805 4.36v4.35a4.368 4.368 0 01-3.79 4.357l-4.89.643c-.325.98-.717 1.928-1.172 2.843l2.987 3.89c1.337 1.727 1.173 4.21-.387 5.77l-3.073 3.072c-1.56 1.558-4.04 1.72-5.773.383l-3.884-2.985c-.915.457-1.866.847-2.843 1.172l-.64 4.872C36.222 58.407 34.39 60 32.175 60zM19.8 46.05c.322 0 .645.083.938.25a17.91 17.91 0 004.275 1.765 1.88 1.88 0 011.372 1.565l.8 6.075c.045.313.31.545.64.545h4.35c.333 0 .598-.23.643-.563l.797-6.057c.1-.752.64-1.37 1.372-1.565 1.51-.408 2.95-1 4.275-1.765a1.879 1.879 0 012.08.137l4.85 3.726c.26.2.596.172.83-.063l3.076-3.075a.615.615 0 00.067-.828l-3.73-4.855a1.874 1.874 0 01-.138-2.08 17.873 17.873 0 001.765-4.275 1.882 1.882 0 011.566-1.372l6.075-.8a.636.636 0 00.545-.64v-4.35a.635.635 0 00-.563-.642l-6.058-.798c-.752-.1-1.37-.64-1.565-1.372-.407-1.51-1-2.95-1.765-4.275a1.884 1.884 0 01.138-2.08l3.725-4.85a.615.615 0 00-.062-.83l-3.076-3.076c-.237-.234-.575-.265-.825-.07l-4.855 3.73a1.884 1.884 0 01-2.08.138 17.91 17.91 0 00-4.275-1.765 1.88 1.88 0 01-1.372-1.565l-.8-6.075a.63.63 0 00-.64-.545h-4.35a.635.635 0 00-.642.563l-.798 6.057c-.1.752-.64 1.37-1.372 1.565-1.51.408-2.95 1-4.275 1.765a1.888 1.888 0 01-2.08-.137l-4.85-3.726c-.255-.2-.593-.172-.83.063L9.9 12.975c-.235.237-.263.575-.068.828l3.73 4.854a1.88 1.88 0 01.138 2.078 17.918 17.918 0 00-1.765 4.275 1.88 1.88 0 01-1.565 1.372l-6.075.8a.635.635 0 00-.545.643v4.35c0 .333.23.598.563.643l6.057.797c.752.1 1.37.64 1.565 1.372.408 1.51 1 2.95 1.765 4.275a1.883 1.883 0 01-.137 2.08l-3.726 4.85c-.2.258-.17.596.063.83l3.075 3.076a.615.615 0 00.828.067l4.854-3.73a1.885 1.885 0 011.143-.385z" fill="#E9EBF9" fill-opacity=".95"/><path d="M30 42.5c-6.892 0-12.5-5.607-12.5-12.5 0-6.892 5.608-12.5 12.5-12.5 6.893 0 12.5 5.608 12.5 12.5 0 6.893-5.607 12.5-12.5 12.5zm0-21.25c-4.825 0-8.75 3.925-8.75 8.75s3.925 8.75 8.75 8.75 8.75-3.925 8.75-8.75-3.925-8.75-8.75-8.75z" fill="#3378FF"/></g><defs><clipPath id="clip0_93_5870"><path fill="#fff" d="M0 0h60v60H0z"/></clipPath></defs></svg>