<svg width="60" height="60" viewBox="0 0 60 60" fill="none" xmlns="http://www.w3.org/2000/svg">
<path d="M54.0598 27.432L54.0398 10C54.0398 9.16 53.5118 8.408 52.7238 8.12L30.7238 0.12C30.2798 -0.04 29.8038 -0.04 29.3558 0.12L7.35582 8.12C6.56782 8.408 6.03982 9.16 6.03982 10L6.01982 27.432C5.88382 41.708 5.78782 52.02 29.4078 59.896C29.6158 59.964 29.8238 60 30.0398 60C30.2558 60 30.4638 59.964 30.6718 59.896C54.2878 52.024 54.1958 41.708 54.0598 27.432ZM30.0398 55.888C9.81582 48.992 9.88782 41.308 10.0198 27.472L10.0398 11.4L30.0398 4.128L50.0398 11.4L50.0598 27.472C50.1918 41.308 50.2638 48.992 30.0398 55.888Z" fill="#E9EBF9" fill-opacity="0.95"/>
<path d="M18.3002 35.4731L18.3542 35.65H18.5393H21.5843H21.7693L21.8233 35.4731L25.1233 24.6731L25.2221 24.35H24.8843H22.7843H22.5999L22.5454 24.5262L20.0412 32.6271L17.5784 24.5273L17.5245 24.35H17.3393H15.2393H14.9015L15.0002 24.6731L18.3002 35.4731ZM31.2925 35.4746L31.3473 35.65H31.5311H33.6311H33.9689L33.8702 35.3269L30.5702 24.5269L30.5162 24.35H30.3311H27.2861H27.1011L27.047 24.5269L23.747 35.3269L23.6483 35.65H23.9861H26.0861H26.2715L26.3254 35.4726L26.7815 33.97H30.8223L31.2925 35.4746ZM42.1718 31.4248L41.935 31.3564L41.8632 31.5922C41.7664 31.9102 41.6143 32.2143 41.4218 32.4758C40.9374 33.121 40.1196 33.4689 39.2715 33.455L39.2715 33.4549L39.2633 33.455C38.3982 33.469 37.5826 33.1198 37.1144 32.4777L37.1145 32.4777L37.1104 32.4724C36.6057 31.8176 36.4425 30.9257 36.4274 30C36.4426 29.0724 36.6063 28.1679 37.1088 27.5296L37.1089 27.5297L37.1144 27.5223C37.5826 26.8801 38.3992 26.53 39.2674 26.53C40.119 26.53 40.9381 26.8792 41.4224 27.525L41.4223 27.5251L41.4272 27.5312C41.6389 27.7959 41.7777 28.1218 41.8943 28.4862L41.9605 28.6931L42.1746 28.6564L44.2746 28.2964L44.5536 28.2486L44.4717 27.9777C44.2693 27.3084 43.9412 26.6033 43.4376 25.9738L43.4376 25.9738L43.4356 25.9714C42.4203 24.734 40.8889 24.125 39.2674 24.125C37.6497 24.125 36.1009 24.7166 35.0985 25.9722C34.1695 27.0911 33.7674 28.471 33.7674 30C33.7674 31.4689 34.1545 32.8636 35.0982 34.0125C36.0528 35.2048 37.6141 35.875 39.2674 35.875C40.8284 35.875 42.3897 35.2814 43.4352 34.0141L43.4359 34.0133C43.8624 33.492 44.1604 32.9102 44.3632 32.3329L44.4509 32.0833L44.1968 32.0098L42.1718 31.4248ZM30.082 31.55H27.5184L28.7883 27.3723L30.082 31.55Z" fill="#3378FF" stroke="#3378FF" stroke-width="0.5"/>
</svg>
