<svg width="60" height="59" viewBox="0 0 60 59" fill="none" xmlns="http://www.w3.org/2000/svg">
<g clip-path="url(#clip0_93_5880)">
<path d="M39.6979 59.0003C38.4097 59.0003 37.2371 58.1914 36.7797 56.9895L26.5189 30.0558C26.3933 29.778 26.3101 29.3725 26.3101 28.9372C26.3101 27.2141 27.7109 25.8105 29.4344 25.8105C29.8792 25.8105 30.2924 25.8965 30.666 26.0662L57.4864 36.2802C58.6909 36.7376 59.4998 37.9102 59.4998 39.2007C59.4998 40.5578 58.6297 41.7525 57.3387 42.1729L46.2911 45.7916L42.6702 56.8468C42.2471 58.1351 41.0524 59.0003 39.6979 59.0003ZM30.4103 29.9135L39.661 54.1893L43.078 43.7587C43.2599 43.2006 43.7001 42.7631 44.2556 42.5812L54.6865 39.1642L30.4103 29.9135ZM56.181 39.7318H56.2057H56.181ZM29.2449 29.4683C29.2526 29.4733 29.2647 29.4782 29.2769 29.4805L29.2449 29.4683ZM29.9309 28.6522L29.9678 28.7454C29.9557 28.7162 29.9458 28.6842 29.9309 28.6522Z" fill="#3378FF"/>
<path d="M27.5418 54.0832C12.632 54.0832 0.5 41.9516 0.5 27.0418C0.5 12.132 12.632 0 27.5418 0C42.4516 0 54.5832 12.132 54.5832 27.0418C54.5832 27.5626 54.5589 28.1109 54.5319 28.6299C54.4824 29.6499 53.6271 30.4367 52.5994 30.38C51.5844 30.3309 50.7998 29.4658 50.8493 28.448C50.8714 27.9907 50.8957 27.5037 50.8957 27.0418C50.8957 14.1648 40.4184 3.6875 27.5418 3.6875C14.6648 3.6875 4.1875 14.1648 4.1875 27.0418C4.1875 39.9184 14.6648 50.3957 27.5418 50.3957C28.0037 50.3957 28.488 50.3736 28.948 50.3493C29.892 50.3219 30.8309 51.0767 30.8827 52.0945C30.934 53.1122 30.1526 53.9801 29.1348 54.0319C28.6136 54.0589 28.0653 54.0832 27.5418 54.0832Z" fill="#E9EBF9" fill-opacity="0.95"/>
<path d="M24.2231 41.3979C24.0683 41.3979 23.9085 41.3781 23.7509 41.3363C17.2834 39.6204 12.7672 33.7425 12.7672 27.0414C12.7672 18.8944 19.395 12.2666 27.542 12.2666C34.2701 12.2666 40.1507 16.785 41.8369 23.2553C42.0926 24.2411 41.5029 25.2489 40.5193 25.5046C39.5484 25.7603 38.5279 25.1756 38.27 24.1871C37.0065 19.3391 32.5938 15.9541 27.542 15.9541C21.4305 15.9541 16.4547 20.9272 16.4547 27.0414C16.4547 32.0712 19.8447 36.4838 24.6976 37.7717C25.6807 38.0323 26.2685 39.0428 26.0052 40.0259C25.7864 40.8519 25.0392 41.3979 24.2231 41.3979Z" fill="#E9EBF9" fill-opacity="0.95"/>
</g>
<defs>
<clipPath id="clip0_93_5880">
<rect width="59" height="59" fill="white" transform="translate(0.5)"/>
</clipPath>
</defs>
</svg>
