<svg width="60" height="60" viewBox="0 0 60 60" fill="none" xmlns="http://www.w3.org/2000/svg">
<g clip-path="url(#clip0_93_5870)">
<path d="M32.1748 60H27.8252C25.61 60 23.7776 58.4074 23.4677 56.2102L22.825 51.3226C21.8449 50.9976 20.8974 50.6049 19.9823 50.1498L16.0927 53.1377C14.3651 54.4775 11.8826 54.3123 10.3226 52.7499L7.25006 49.6751C5.69 48.1174 5.52521 45.6349 6.86737 43.9023L9.85245 40.0177C9.39514 39.1026 9.00513 38.1523 8.68011 37.175L3.80768 36.535C1.59256 36.2224 0 34.39 0 32.1748V27.8252C0 25.61 1.59256 23.7776 3.78983 23.4677L8.67737 22.825C9.00238 21.8449 9.39514 20.8974 9.85016 19.9823L6.86234 16.0927C5.52521 14.3651 5.69 11.8826 7.25006 10.3226L10.3249 7.25006C11.8826 5.69 14.3651 5.52246 16.1 6.86737L19.9823 9.85016C20.8951 9.39514 21.8449 9.00238 22.825 8.67737L23.465 3.80493C23.7776 1.59256 25.61 0 27.8252 0H32.1748C34.39 0 36.2224 1.59256 36.5323 3.78983L37.175 8.68011C38.1551 9.00513 39.1026 9.39743 40.0177 9.85245L43.9073 6.86508C45.6349 5.5275 48.1201 5.69 49.6774 7.25235L52.7499 10.3249C54.31 11.8826 54.4748 14.3651 53.1326 16.0977L50.1498 19.9823C50.6076 20.8974 50.9976 21.8477 51.3226 22.825L56.1951 23.465C58.4074 23.7776 60 25.61 60 27.8252V32.1748C60 34.39 58.4074 36.2224 56.2102 36.5323L51.3199 37.175C50.9949 38.1551 50.6026 39.1026 50.1476 40.0177L53.1349 43.9073C54.4725 45.6349 54.3077 48.1174 52.7477 49.6774L49.6751 52.7499C48.1151 54.3077 45.6349 54.4702 43.9023 53.1326L40.0177 50.1476C39.1026 50.6049 38.1523 50.9949 37.175 51.3199L36.535 56.1923C36.2224 58.4074 34.39 60 32.1748 60ZM19.8001 46.0501C20.1224 46.0501 20.4451 46.1325 20.7376 46.3C22.0651 47.065 23.5025 47.6573 25.0127 48.0652C25.7423 48.2625 26.2848 48.88 26.385 49.6298L27.1852 55.7048C27.2301 56.0175 27.4951 56.25 27.8252 56.25H32.1748C32.5076 56.25 32.7727 56.0202 32.8175 55.6874L33.615 49.6298C33.7152 48.8777 34.2549 48.2602 34.9873 48.0652C36.4975 47.6573 37.9376 47.065 39.2624 46.3C39.9202 45.9224 40.7373 45.975 41.3425 46.4374L46.1925 50.1627C46.4525 50.3627 46.7876 50.3348 47.0224 50.0999L50.0977 47.0251C50.3325 46.7899 50.36 46.4502 50.1649 46.1975L46.4351 41.3425C45.9723 40.7401 45.9174 39.9202 46.2973 39.2624C47.0627 37.9349 47.655 36.4975 48.0624 34.9873C48.2602 34.2577 48.8777 33.7152 49.6275 33.615L55.7025 32.8148C56.0152 32.7699 56.2477 32.5049 56.2477 32.1748V27.8252C56.2477 27.4924 56.0175 27.2273 55.6851 27.1825L49.6275 26.385C48.875 26.2848 48.2574 25.7451 48.0624 25.0127C47.655 23.5025 47.0627 22.0624 46.2973 20.7376C45.9201 20.0798 45.975 19.2599 46.4351 18.6575L50.1599 13.8075C50.36 13.5498 50.3302 13.2124 50.0977 12.9776L47.0224 9.90234C46.7848 9.66751 46.4474 9.6373 46.1975 9.83231L41.3425 13.5626C40.7373 14.025 39.9202 14.0749 39.2624 13.7C37.9349 12.935 36.4975 12.3427 34.9873 11.9348C34.2577 11.7375 33.7152 11.12 33.615 10.3702L32.8148 4.2952C32.7727 3.9798 32.5076 3.75 32.1748 3.75H27.8252C27.4924 3.75 27.2273 3.9798 27.1825 4.31259L26.385 10.3702C26.2848 11.1223 25.7451 11.7398 25.0127 11.9348C23.5025 12.3427 22.0624 12.935 20.7376 13.7C20.0775 14.0749 19.2627 14.0227 18.6575 13.5626L13.8075 9.83734C13.5526 9.6373 13.2152 9.66522 12.9776 9.90005L9.90005 12.9749C9.66522 13.2124 9.6373 13.5498 9.83231 13.8025L13.5626 18.6575C14.0227 19.2599 14.0776 20.0798 13.7 20.7349C12.935 22.0624 12.3427 23.5002 11.9348 25.0099C11.7375 25.7401 11.12 26.2825 10.3702 26.3823L4.2952 27.1825C3.9798 27.2273 3.75 27.4924 3.75 27.8252V32.1748C3.75 32.5076 3.9798 32.7727 4.31259 32.8175L10.3702 33.615C11.1223 33.7152 11.7398 34.2549 11.9348 34.9873C12.3427 36.4975 12.935 37.9376 13.7 39.2624C14.0776 39.9202 14.0227 40.7401 13.5626 41.3425L9.83734 46.1925C9.6373 46.4502 9.66751 46.7876 9.90005 47.0224L12.9749 50.0977C13.2074 50.3325 13.5475 50.36 13.8025 50.1649L18.6575 46.4351C18.9926 46.1801 19.395 46.0501 19.8001 46.0501Z" fill="#E9EBF9" fill-opacity="0.95"/>
<path d="M30 42.5003C23.1075 42.5003 17.4999 36.8927 17.4999 30.0002C17.4999 23.1076 23.1075 17.5 30 17.5C36.8926 17.5 42.5002 23.1076 42.5002 30.0002C42.5002 36.8927 36.8926 42.5003 30 42.5003ZM30 21.25C25.1752 21.25 21.2499 25.1753 21.2499 30.0002C21.2499 34.825 25.1752 38.7503 30 38.7503C34.8249 38.7503 38.7502 34.825 38.7502 30.0002C38.7502 25.1753 34.8249 21.25 30 21.25Z" fill="#3378FF"/>
</g>
<defs>
<clipPath id="clip0_93_5870">
<rect width="60" height="60" fill="white"/>
</clipPath>
</defs>
</svg>
